<svg width="90" height="90" viewBox="0 0 90 90" fill="none" xmlns="http://www.w3.org/2000/svg">
<path d="M73.125 40.8752C71.355 40.8752 69.6525 41.278 68.0475 42.0151C67.7321 41.4956 67.4075 40.9876 67.074 40.4916C73.23 37.2175 80.5515 38.6082 86.1705 46.4271C87.489 48.2591 89.481 45.3364 88.1595 43.4958C81.255 33.8984 72.126 32.6985 64.7685 37.4661C63.2374 35.6828 61.5692 34.1545 59.796 32.9106C59.721 32.8592 59.649 32.8634 59.577 32.8313L60.3975 29.2422L62.4285 20.3862C63.339 20.759 64.0665 21.4233 64.8015 22.0382C66.1005 23.1246 67.5105 21.9397 68.4465 20.1976C69.171 18.8541 70.6155 15.5007 70.2585 13.8679C69.903 12.233 68.235 10.1759 67.125 10.1759C62.4795 10.1759 62.4885 14.4357 57.147 14.4357C54.849 14.4357 53.4675 14.5814 53.442 16.0257C53.364 20.7869 55.1595 22.7239 56.268 21.9654C57.5265 21.1019 58.5765 20.5876 59.4765 20.3198L57.7305 27.9458L53.9925 44.2736C45.606 26.3195 31.5885 21.7897 26.5545 20.7226C27.063 18.7513 27.5715 16.7821 28.077 14.8107C28.248 14.1443 28.0455 13.2979 27.7155 12.8201L24.81 8.59245C27.2775 6.91681 30.192 6.4047 32.814 6.33613C32.9025 6.33399 32.9685 6.28042 33.048 6.25899V7.16752C33.048 7.73106 33.363 8.19175 33.7515 8.19175C34.14 8.19175 34.455 7.73106 34.455 7.16752V6.33613H39.3765C39.5647 6.33274 39.7443 6.22313 39.8761 6.03123C40.0079 5.83933 40.0812 5.58073 40.08 5.31189V3.26342C40.0816 2.99441 40.0084 2.73549 39.8765 2.54346C39.7446 2.35144 39.5648 2.24201 39.3765 2.23918H34.455V1.02424C34.455 0.460694 34.14 0 33.7515 0C33.363 0 33.048 0.458551 33.048 1.02424V2.30132C32.9685 2.28418 32.9025 2.23704 32.814 2.23918C29.13 2.3356 24.9045 3.20771 21.7905 6.35542C21.0555 7.09895 20.8275 8.58174 21.5055 9.56955L25.089 14.785L23.667 20.3048L23.5935 20.2983L23.253 21.9075L20.4255 35.2655C14.157 33.5577 7.302 35.8997 1.8405 43.4915C0.5205 45.3321 2.511 48.257 3.8295 46.4228C8.463 39.9795 14.253 37.9053 19.5915 39.206L19.2615 40.7638L19.3305 41.1645C18.5265 40.9931 17.7105 40.8731 16.8735 40.8731C7.569 40.8752 0 51.8932 0 65.4376C0 78.982 7.569 90 16.875 90C26.181 90 33.75 78.982 33.75 65.4376C33.75 54.6874 28.9755 45.555 22.3575 42.2316C22.3045 41.7834 22.245 41.3369 22.179 40.8923L22.329 40.1809C29.292 43.5044 34.908 52.7332 35.16 65.4826C35.2125 68.1525 38.022 68.1589 37.9695 65.4826C37.9559 64.7571 37.9254 64.0324 37.878 63.3098H37.6755C37.2993 63.3036 36.9401 63.0849 36.6764 62.7014C36.4128 62.318 36.2661 61.801 36.2685 61.2635C36.2685 60.2521 36.7845 59.4486 37.446 59.2836C37.3466 58.6276 37.2336 57.9759 37.107 57.3294C37.4325 57.9851 37.77 58.6108 38.1165 59.215H41.259C41.9835 59.215 42.561 60.0293 42.636 61.0535L46.779 63.4663C48.4395 64.4327 47.715 68.3925 46.032 67.4111L40.839 64.3855C40.8012 64.7336 40.7817 65.0853 40.7805 65.4376C40.7805 69.961 43.299 73.6251 46.4055 73.6251C48.012 73.6251 49.4505 72.6351 50.4765 71.0623C50.523 71.0688 50.565 71.1052 50.6115 71.1052H54.198C54.5741 71.0984 54.9331 70.8795 55.1967 70.4961C55.4602 70.1128 55.607 69.5962 55.605 69.0589C55.605 68.6501 55.5191 68.2508 55.3583 67.9127C55.1976 67.5746 54.9695 67.3132 54.7035 67.1625H56.31C56.406 69.1724 56.658 71.1181 57.069 72.9651L46.332 74.6022C46.104 74.645 45.894 74.6622 45.6885 74.6622C42.7005 74.6622 40.077 70.3509 40.077 65.4376C40.077 64.9469 40.11 64.4669 40.167 63.9955L39.0015 63.3184L38.994 63.3098H38.8155C38.723 64.0115 38.6753 64.7237 38.673 65.4376C38.673 71.5402 41.8875 76.6935 45.69 76.6935C45.957 76.6935 46.2255 76.6699 46.5015 76.6206L57.567 74.9343C60.1215 83.7774 66.132 90 73.125 90C82.4295 90 90 78.982 90 65.4376C90 51.8932 82.4295 40.8752 73.125 40.8752ZM22.6935 51.4497C24.3582 52.9269 25.7311 54.9873 26.6817 57.4354C27.6323 59.8835 28.1291 62.6381 28.125 65.4376C28.125 74.465 23.0775 81.8125 16.875 81.8125C10.6725 81.8125 5.625 74.465 5.625 65.4376C5.625 56.408 10.6725 49.0627 16.875 49.0627C17.9325 49.0627 18.951 49.2919 19.9215 49.6905C19.8465 54.4496 19.02 60.175 15.9765 63.8648L15.9885 63.8862C15.7622 64.15 15.5983 64.5072 15.5193 64.9089C15.4404 65.3107 15.4501 65.7374 15.5472 66.131C15.6444 66.5245 15.8242 66.8656 16.0621 67.1078C16.3 67.3499 16.5844 67.4813 16.8765 67.4839C17.2041 67.476 17.519 67.3012 17.7645 66.9911L17.775 67.0125C17.805 66.9761 17.829 66.9354 17.859 66.899L17.877 66.8733C21.282 62.652 22.4355 56.6759 22.6935 51.4497M23.1525 36.294L24.417 30.3178C27.348 33.5106 29.5095 38.4475 31.542 43.6886C29.1823 40.3321 26.3109 37.8012 23.1525 36.294M50.4435 59.7529C49.9255 58.965 49.3003 58.3368 48.6061 57.9068C47.912 57.4768 47.1636 57.254 46.407 57.2523C44.949 57.2523 43.632 58.0815 42.633 59.4057C42.4185 59.1636 42.2025 58.9258 41.9985 58.6644C43.0035 57.173 44.301 56.2152 45.69 56.2152C45.8955 56.2152 46.1055 56.2345 46.3155 56.273L51.0765 56.9973L50.4435 59.7529M51.5295 55.026L46.4805 54.2546C46.2183 54.2064 45.9543 54.182 45.69 54.1817C43.887 54.1817 42.2205 55.3495 40.9635 57.2201C37.5225 51.9982 35.3355 44.3893 32.781 38.6939C30.669 33.9884 28.2345 29.585 25.2165 26.5466L25.611 24.6845C29.8245 25.5288 45.0735 29.9021 52.836 49.3241L51.5295 55.026M68.7195 50.3762C69.6605 52.7789 70.4006 55.3313 70.9245 57.9808L63.564 56.8559C64.7741 53.9887 66.5747 51.7257 68.7195 50.3762ZM71.292 60.0764C71.3925 60.7257 71.4825 61.3814 71.5575 62.0392C71.268 62.3263 71.0175 62.6906 70.818 63.1084L62.004 63.0891C62.1497 61.6088 62.4353 60.1636 62.853 58.7929L71.292 60.0764M58.692 36.6947C59.8665 37.5454 60.9795 38.5203 62.0205 39.6003C59.7745 41.6597 57.8158 44.2972 56.244 47.3785L58.692 36.6947M56.3325 63.0784L54.963 63.0741C55.1025 61.1971 55.3695 59.41 55.7355 57.7087L57.0705 57.9144C56.7015 59.5643 56.451 61.2935 56.3325 63.0784M57.5655 55.9431L56.2155 55.7352C57.7667 50.0733 60.6284 45.3409 64.3245 42.3258C64.656 42.7737 64.9755 43.2344 65.2875 43.7058C61.803 46.3913 59.075 50.7143 57.5655 55.9431M61.941 67.169C64.8315 67.1732 67.7385 67.1775 70.59 67.1775C71.04 68.5639 72.0015 69.5324 73.125 69.5324C74.679 69.5324 75.9375 67.7025 75.9375 65.4397C75.9375 63.8134 75.2805 62.4185 74.334 61.7585C74.298 61.4349 74.262 61.1071 74.2215 60.7878C75.546 61.5228 76.641 63.0699 76.641 65.4397C76.641 68.4846 74.8305 70.1967 73.035 70.5352L62.8545 72.0866C62.3727 70.5253 62.0645 68.8661 61.941 67.169M73.125 81.8125C69.087 81.8125 65.547 78.6863 63.564 74.0215L73.2 72.5537C76.0605 72.0094 78.0465 69.0867 78.0465 65.4376C78.0465 62.0885 76.3635 59.3736 73.8855 58.5294C73.3456 55.3118 72.5342 52.1999 71.469 49.2619C72.0165 49.1338 72.5702 49.0672 73.125 49.0627C79.3305 49.0627 84.375 56.408 84.375 65.4376C84.375 74.465 79.3305 81.8125 73.125 81.8125Z" fill="#FE3051"/>
</svg>
