<svg width="95" height="90" viewBox="0 0 95 90" fill="none" xmlns="http://www.w3.org/2000/svg">
<path d="M95 30.8199C95 13.7982 73.9951 0 48.0881 0C22.1763 0 1.1761 13.7982 1.1761 30.8199C1.1761 46.9701 20.0934 65.3702 44.1668 67.2077C42.4782 67.4762 42.6254 69.0631 44.6514 69.0631H42.8891C42.3227 69.0959 41.7962 69.2611 41.4128 69.5264C41.0295 69.7917 40.8169 70.1379 40.8169 70.4971C40.8169 70.8563 41.0295 71.2025 41.4128 71.4678C41.7962 71.7331 42.3227 71.8983 42.8891 71.9311H46.3709C46.1286 74.352 45.0717 76.914 42.0127 78.5144C36.9325 81.1664 30.3963 79.5899 24.4872 79.4789C17.3288 79.3409 11.2843 81.2684 6.10433 84.2653C4.30404 85.3048 2.2995 86.8288 0.663091 87.9808C-1.20132 89.2932 1.2616 90.8667 3.17827 89.4282C6.85247 86.6623 9.29164 84.7348 14.1866 82.9859C20.319 80.7944 25.974 81.8879 32.6217 82.1159C40.2385 82.3739 47.119 80.0834 49.2851 75.141C49.6318 74.3475 49.8218 73.08 49.9002 71.9326H53.2015C53.7679 71.8998 54.2944 71.7346 54.6778 71.4693C55.0611 71.204 55.2737 70.8578 55.2737 70.4986C55.2737 70.1394 55.0611 69.7932 54.6778 69.5279C54.2944 69.2626 53.7679 69.0974 53.2015 69.0646H51.5319C53.5602 69.0646 53.7074 67.4762 52.014 67.2092C76.0804 65.3702 95 46.9686 95 30.8199Z" fill="#FE3051"/>
</svg>
