<svg width="90" height="90" viewBox="0 0 90 90" fill="none" xmlns="http://www.w3.org/2000/svg">
<path d="M45 0C20.148 0 0 20.148 0 45C0 69.852 20.148 90 45 90C69.852 90 90 69.852 90 45C90 20.148 69.852 0 45 0ZM48 54H42V50.1675C40.215 49.128 39 47.214 39 45C39 43.9485 39.294 42.9735 39.771 42.114L28.5 23.898L33.876 21L42 34.1325V6H48V39.8325C48.91 40.3543 49.6663 41.1067 50.193 42.0139C50.7197 42.9211 50.998 43.951 51 45C51 45.9555 50.757 46.845 50.3595 47.646L52.5 51.105L48 53.5275V54Z" fill="#FE3051"/>
</svg>
