<svg width="90" height="90" viewBox="0 0 90 90" fill="none" xmlns="http://www.w3.org/2000/svg">
<path d="M89.8544 4.75231C89.6525 4.29699 89.2734 3.93672 88.799 3.74925C88.3246 3.56179 87.793 3.56217 87.3189 3.75033C81.8551 5.88478 80.246 8.92522 78.6973 12.1666C78.8277 11.7752 78.9518 11.3882 79.0697 11.0117C80.0939 7.78524 80.7689 5.65379 84.8407 3.44734C85.0611 3.33022 85.255 3.17173 85.4112 2.98118C85.5673 2.79063 85.6825 2.57186 85.75 2.33769C85.8175 2.10352 85.836 1.85868 85.8043 1.61753C85.7726 1.37638 85.6913 1.14379 85.5654 0.933389C85.3057 0.50559 84.8824 0.193637 84.3868 0.0648345C83.8913 -0.0639679 83.3632 0.000706144 82.9165 0.244903C77.4962 3.17884 76.455 6.46827 75.3517 9.9497C74.6302 12.2236 73.8527 14.6686 71.6973 17.5365C69.9066 16.7776 68.555 16.2661 66.9536 16.6471L62.7049 12.6121C61.1844 11.168 59.1354 10.3626 57.0038 10.3712C54.8499 10.3712 52.8264 11.1662 51.3057 12.6121L0 61.3311L30.1723 61.3491L30.1925 90L81.4982 41.2825C82.2438 40.5773 82.8362 39.7352 83.2405 38.8057C83.6449 37.8762 83.8531 36.8779 83.853 35.8696C83.8528 34.8612 83.6443 33.8631 83.2397 32.9336C82.8351 32.0042 82.2425 31.1623 81.4967 30.4573L77.2293 26.4058C77.5925 25.0304 77.2759 23.7779 76.6692 22.2569C76.6692 22.2569 76.5047 22.4189 76.1912 22.7024C79.4344 19.5 80.8558 16.5901 82.0615 14.0566C83.5621 10.9037 84.5521 8.82022 88.7977 7.15976C89.0323 7.07087 89.2462 6.93761 89.4268 6.76778C89.6074 6.59796 89.7512 6.39498 89.8496 6.17076C89.948 5.94654 89.9992 5.70558 90 5.462C90.0008 5.21843 89.9513 4.97715 89.8544 4.75231M60.4797 26.0234C60.6411 26.1644 60.8226 26.2919 61.0383 26.3758C61.4 26.5148 61.7964 26.5464 62.1767 26.4665C62.5571 26.3866 62.9041 26.1989 63.1735 25.9274C64.2266 26.1384 65.195 26.6372 65.9636 27.3643C66.7379 28.0993 67.2516 29.0158 67.4766 30.0103C67.192 30.2609 66.9939 30.5899 66.9092 30.9529C66.8246 31.316 66.8574 31.6954 67.0033 32.0397C67.0917 32.2467 67.2267 32.4177 67.3741 32.5737C67.1202 33.455 66.6342 34.2576 65.9636 34.9032C63.8408 36.9161 60.1445 36.9161 58.0248 34.9032C57.5034 34.4134 57.0891 33.8274 56.8065 33.1799C56.524 32.5323 56.3789 31.8365 56.38 31.1337C56.3785 30.4311 56.5234 29.7354 56.806 29.0881C57.0886 28.4408 57.5031 27.855 58.0248 27.3658C58.7105 26.7222 59.5558 26.2599 60.4797 26.0234" fill="#FE3051"/>
</svg>
