<svg width="90" height="90" viewBox="0 0 90 90" fill="none" xmlns="http://www.w3.org/2000/svg">
<path d="M87.4983 30.8625L59.1305 2.49C57.5496 0.9075 55.4511 0 53.3721 0C51.8646 0 50.5176 0.4755 49.4691 1.377L2.65155 41.655C1.85483 42.3318 1.20801 43.1674 0.752412 44.1083C0.296815 45.0492 0.0424556 46.0747 0.00557839 47.1195C-0.0784209 49.3605 0.788571 51.5085 2.44756 53.169L36.8287 87.5535C38.4082 89.1315 40.4527 90 42.5857 90C43.6792 89.9986 44.7595 89.7608 45.7526 89.3031C46.7457 88.8454 47.6282 88.1785 48.3396 87.348L88.6113 40.5255C90.8298 37.9485 90.3408 33.705 87.4983 30.8625ZM2.73105 47.2215C2.75486 46.5521 2.91818 45.8951 3.21057 45.2925C3.50297 44.6899 3.91798 44.155 4.42904 43.722L51.2496 3.4455C51.7926 2.976 52.5276 2.727 53.3721 2.727C54.7131 2.727 56.1456 3.36 57.2031 4.419L59.6615 6.876L7.45601 54.3195L4.37654 51.2385C3.25905 50.121 2.67405 48.6945 2.73105 47.2215ZM86.5428 38.748L46.2742 85.5705C45.8209 86.1063 45.2558 86.5364 44.6186 86.8305C43.9814 87.1246 43.2875 87.2757 42.5857 87.273C41.1802 87.273 39.8197 86.6865 38.7547 85.623L19.5504 66.4155L69.7114 16.9305L85.5708 32.79C87.3768 34.5975 87.8148 37.272 86.5428 38.748" fill="#FE3051"/>
</svg>
